<?xml version="1.0" encoding="UTF-8"?>
<svg xmlns="http://www.w3.org/2000/svg" viewBox="0 0 1920 1080" font-family="-apple-system, 'Segoe UI', 'PingFang SC', 'Microsoft YaHei', sans-serif">
  <rect width="1920" height="1080" fill="#0f0f0f"/>

  <!-- Unity 标题栏 (y=0~30) -->
  <rect width="1920" height="30" fill="#252525"/>
  <text x="20" y="20" font-size="11" fill="#9ca3af">BoardGameEditor — BoardEditorScene · Windows · Unity 2023.x</text>
  <g transform="translate(1840, 8)">
    <text x="0" y="14" font-size="13" fill="#9ca3af">— □ ✕</text>
  </g>

  <!-- Unity 菜单栏 (y=30~52) -->
  <rect y="30" width="1920" height="22" fill="#1f1f1f"/>
  <text x="20" y="46" font-size="11" fill="#9ca3af">File   Edit   Assets   GameObject   Component   Services   Achievements   Tools   Build   Jobs   Xbox   GP SDK   联机模拟   Window   Help</text>

  <!-- Unity 工具栏 (y=52~78) -->
  <rect y="52" width="1920" height="26" fill="#1a1a1a"/>
  <g transform="translate(700, 56)">
    <rect width="40" height="20" rx="3" fill="#252525"/>
    <text x="20" y="14" font-size="10" fill="#cc785c" text-anchor="middle">▶</text>
  </g>
  <g transform="translate(745, 56)">
    <rect width="40" height="20" rx="3" fill="#252525"/>
    <text x="20" y="14" font-size="10" fill="#9ca3af" text-anchor="middle">⏸</text>
  </g>
  <g transform="translate(790, 56)">
    <rect width="40" height="20" rx="3" fill="#252525"/>
    <text x="20" y="14" font-size="10" fill="#9ca3af" text-anchor="middle">⏭</text>
  </g>

  <!-- 当前项目路径 + Hierarchy 头 (y=78~98) -->
  <rect y="78" width="1920" height="20" fill="#161616"/>
  <text x="20" y="93" font-size="11" fill="#6b7280">Hierarchy   ▾   ⊕Create   Display 1   Free Aspect</text>

  <!-- 编辑器主标题区 -->
  <rect y="98" width="1920" height="62" fill="#0f0f0f"/>
  <!-- 桌游编辑器 logo + 标题 -->
  <g transform="translate(60, 110)">
    <circle cx="20" cy="20" r="20" fill="#cc785c"/>
    <circle cx="20" cy="20" r="8" fill="#0f0f0f"/>
  </g>
  <text x="120" y="138" font-size="18" fill="#f5f5f5" font-weight="700">桌游编辑器</text>

  <!-- 顶部 3 个项目按钮 -->
  <g transform="translate(1450, 110)">
    <rect width="90" height="36" rx="4" fill="#2a2a2a" stroke="#3a3a3a"/>
    <text x="45" y="23" font-size="12" fill="#f5f5f5" text-anchor="middle">打开工程</text>
  </g>
  <g transform="translate(1545, 110)">
    <rect width="90" height="36" rx="4" fill="#cc785c"/>
    <text x="45" y="23" font-size="12" fill="#fff" text-anchor="middle" font-weight="700">新建工程</text>
  </g>
  <g transform="translate(1640, 110)">
    <rect width="90" height="36" rx="4" fill="#2a2a2a" stroke="#3a3a3a"/>
    <text x="45" y="23" font-size="12" fill="#f5f5f5" text-anchor="middle">游戏商店</text>
  </g>

  <!-- 「工程项目」标签 -->
  <text x="120" y="180" font-size="14" fill="#9ca3af">工程项目</text>

  <!-- 列表表头 (y=190~210) -->
  <rect y="190" width="1920" height="20" fill="#161616"/>
  <text x="120" y="204" font-size="11" fill="#6b7280" font-weight="600">名称</text>
  <text x="380" y="204" font-size="11" fill="#6b7280" font-weight="600">路径</text>
  <text x="1488" y="204" font-size="11" fill="#6b7280" font-weight="600">操作</text>

  <!-- 第 1 行：十二军团（重点 hotspot 区域）-->
  <rect x="80" y="215" width="1760" height="56" fill="#161616"/>
  <text x="120" y="248" font-size="14" fill="#f5f5f5">十二军团</text>
  <text x="380" y="248" font-size="12" fill="#9ca3af" font-family="'JetBrains Mono', 'Cascadia Code', monospace">E:\Work\UnityProjects\BoardGameEditor\桌游工程文件\十二军团</text>
  <!-- 操作按钮组：金色立方体 / 橙色三角 / 移除 -->
  <g transform="translate(1488, 230)">
    <rect width="32" height="32" rx="3" fill="#1f1f1f" stroke="#2a2a2a"/>
    <!-- 金色立方体（导出） -->
    <polygon points="8,12 16,8 24,12 24,22 16,26 8,22" fill="#fbbf24" stroke="#fbbf24" stroke-width="0.6"/>
    <line x1="16" y1="16" x2="16" y2="26" stroke="#1a1a1a" stroke-width="0.6"/>
  </g>
  <g transform="translate(1530, 230)">
    <rect width="32" height="32" rx="3" fill="#1f1f1f" stroke="#2a2a2a"/>
    <polygon points="11,9 23,16 11,23" fill="#cc785c"/>
  </g>
  <g transform="translate(1572, 230)">
    <rect width="80" height="32" rx="3" fill="#252525"/>
    <text x="40" y="21" font-size="12" fill="#e5e5e5" text-anchor="middle">移除</text>
  </g>

  <!-- 后续若干行（仅装饰，不可点） -->
  <g font-family="-apple-system, sans-serif">
    <!-- 行 2 -->
    <rect x="80" y="271" width="1760" height="48" fill="#1a1a1a"/>
    <text x="120" y="300" font-size="14" fill="#e5e5e5">宝石商人</text>
    <text x="380" y="300" font-size="12" fill="#9ca3af" font-family="'JetBrains Mono', monospace">E:\Work\UnityProjects\BoardGameEditor\桌游工程文件\宝石商人测试版</text>
    <g transform="translate(1488, 280)">
      <rect width="32" height="32" rx="3" fill="#1f1f1f" stroke="#2a2a2a"/>
      <polygon points="8,12 16,8 24,12 24,22 16,26 8,22" fill="#fbbf24" stroke="#fbbf24" stroke-width="0.6"/>
    </g>
    <g transform="translate(1530, 280)">
      <rect width="32" height="32" rx="3" fill="#1f1f1f" stroke="#2a2a2a"/>
      <polygon points="11,9 23,16 11,23" fill="#cc785c"/>
    </g>
    <g transform="translate(1572, 280)">
      <rect width="80" height="32" rx="3" fill="#252525"/>
      <text x="40" y="21" font-size="12" fill="#e5e5e5" text-anchor="middle">移除</text>
    </g>

    <!-- 行 3 -->
    <rect x="80" y="319" width="1760" height="48" fill="#161616"/>
    <text x="120" y="348" font-size="14" fill="#e5e5e5">娄盘JOKER</text>
    <text x="380" y="348" font-size="12" fill="#9ca3af" font-family="'JetBrains Mono', monospace">E:\Work\UnityProjects\BoardGameEditor\桌游工程文件\抽鬼牌</text>

    <!-- 行 4 -->
    <rect x="80" y="367" width="1760" height="48" fill="#1a1a1a"/>
    <text x="120" y="396" font-size="14" fill="#e5e5e5">混合制桌游模板</text>
    <text x="380" y="396" font-size="12" fill="#9ca3af" font-family="'JetBrains Mono', monospace">E:\Work\桌游模板\混合制桌游模板</text>

    <!-- 行 5 -->
    <rect x="80" y="415" width="1760" height="48" fill="#161616"/>
    <text x="120" y="444" font-size="14" fill="#e5e5e5">访谈密码</text>
    <text x="380" y="444" font-size="12" fill="#9ca3af" font-family="'JetBrains Mono', monospace">E:\Work\UnityProjects\BoardGameEditor\桌游工程文件\访谈密码</text>

    <!-- 行 6 -->
    <rect x="80" y="463" width="1760" height="48" fill="#1a1a1a"/>
    <text x="120" y="492" font-size="14" fill="#e5e5e5">爆破鼠</text>

    <!-- 行 7 -->
    <rect x="80" y="511" width="1760" height="48" fill="#161616"/>
    <text x="120" y="540" font-size="14" fill="#e5e5e5">颜色塞砖头</text>

    <!-- 行 8 -->
    <rect x="80" y="559" width="1760" height="48" fill="#1a1a1a"/>
    <text x="120" y="588" font-size="14" fill="#e5e5e5">牛头人</text>

    <!-- 行 9 -->
    <rect x="80" y="607" width="1760" height="48" fill="#161616"/>
    <text x="120" y="636" font-size="14" fill="#e5e5e5">卡波</text>

    <!-- 行 10 -->
    <rect x="80" y="655" width="1760" height="48" fill="#1a1a1a"/>
    <text x="120" y="684" font-size="14" fill="#e5e5e5">测试</text>

    <!-- 行 11 -->
    <rect x="80" y="703" width="1760" height="48" fill="#161616"/>
    <text x="120" y="732" font-size="14" fill="#e5e5e5">不要牌</text>

    <!-- 行 12 -->
    <rect x="80" y="751" width="1760" height="48" fill="#1a1a1a"/>
    <text x="120" y="780" font-size="14" fill="#e5e5e5">水果大战</text>

    <!-- 行 13 -->
    <rect x="80" y="799" width="1760" height="48" fill="#161616"/>
    <text x="120" y="828" font-size="14" fill="#e5e5e5">诈骗茶楼</text>
  </g>

  <!-- 底部状态栏 -->
  <rect y="1040" width="1920" height="40" fill="#0a0a0a"/>
  <text x="40" y="1066" font-size="11" fill="#6b7280">激活 Windows · 转到「设置」以激活 Windows</text>
</svg>
