<?xml version="1.0" encoding="UTF-8"?>
<svg xmlns="http://www.w3.org/2000/svg" viewBox="0 0 1920 1080" font-family="-apple-system, 'Segoe UI', 'PingFang SC', 'Microsoft YaHei', sans-serif">  <rect width="1920" height="1080" fill="#0f0f0f"/>
  <rect x="0" y="0" width="70" height="1080" fill="#151515"/>
  <g transform="translate(20, 28)"><circle cx="16" cy="16" r="16" fill="#cc785c"/><circle cx="16" cy="16" r="6" fill="#0f0f0f"/></g>
  <g fill="#9ca3af" font-size="28" text-anchor="middle">
    <text x="35" y="92">⚙</text><text x="35" y="150">◆</text><text x="35" y="205">▤</text><text x="35" y="260">▦</text><text x="35" y="346">▣</text><text x="35" y="405">▶</text>
  </g>
  <g id="save-button" transform="translate(20, 330)"><rect width="50" height="60" rx="4" fill="#252525" opacity="0.28"/><text x="25" y="38" font-size="30" fill="#e5e5e5" text-anchor="middle">▣</text></g>
  <rect x="70" y="0" width="430" height="1080" fill="#161616"/>
  <text x="110" y="42" font-size="18" fill="#f5f5f5" font-weight="700">项目首页</text>
  <rect x="255" y="20" width="80" height="30" rx="4" fill="#252525"/><text x="295" y="40" font-size="12" fill="#e5e5e5" text-anchor="middle">当前查看</text>
  <text x="110" y="90" font-size="13" fill="#9ca3af" font-weight="700">玩家配置</text>
  <g font-size="13" fill="#e5e5e5">
    <rect x="100" y="110" width="300" height="34" fill="#101010" stroke="#252525"/><text x="145" y="132">玩家类型</text>
    <rect x="100" y="150" width="300" height="34" fill="#252525" stroke="#2a2a2a"/><text x="145" y="172">座位设置</text>
  </g>
  <text x="110" y="230" font-size="13" fill="#9ca3af" font-weight="700">全局配置</text>
  <g font-size="13" fill="#e5e5e5">
    <rect x="100" y="250" width="300" height="34" fill="#101010" stroke="#252525"/><text x="145" y="272">项目设置</text>
    <rect x="100" y="290" width="300" height="34" fill="#101010" stroke="#252525"/><text x="145" y="312">图集表</text>
    <rect x="100" y="330" width="300" height="34" fill="#101010" stroke="#252525"/><text x="145" y="352">玩家配置</text>
    <rect x="100" y="370" width="300" height="34" fill="#101010" stroke="#252525"/><text x="145" y="392">全局顺序配置</text>
  </g>
  <text x="110" y="455" font-size="13" fill="#9ca3af" font-weight="700">资产配置</text>
  <g font-size="13" fill="#e5e5e5">
    <rect x="100" y="475" width="300" height="34" fill="#101010" stroke="#252525"/><text x="145" y="497">导出物体</text>
    <rect x="100" y="515" width="300" height="34" fill="#101010" stroke="#252525"/><text x="145" y="537">导入图片</text>
  </g>
  <rect x="500" y="0" width="980" height="1080" fill="#202020"/>
  <rect x="500" y="0" width="980" height="52" fill="#222"/>
  <g font-size="13" fill="#e5e5e5">
    <rect x="510" y="8" width="100" height="36" rx="3" fill="#d18a77"/><text x="560" y="31" text-anchor="middle">玩家</text>
    <rect x="615" y="8" width="120" height="36" rx="3" fill="#3a3a3a"/><text x="675" y="31" text-anchor="middle">玩家配置</text>
    <rect x="740" y="8" width="130" height="36" rx="3" fill="#d18a77"/><text x="805" y="31" text-anchor="middle">玩家座位</text>
  </g>
  <rect x="1480" y="0" width="440" height="1080" fill="#151515"/>
  <rect x="1480" y="0" width="440" height="52" fill="#1c1c1c"/>
  <text x="1540" y="33" font-size="13" fill="#9ca3af">属性编辑</text><text x="1660" y="33" font-size="13" fill="#9ca3af">行为编辑</text><text x="1780" y="33" font-size="13" fill="#9ca3af">Mod行为编辑</text>
  <rect x="500" y="820" width="980" height="260" fill="#1a1a1a"/>
  <rect x="500" y="52" width="980" height="768" fill="#111"/>  <defs><marker id="arrow" markerWidth="10" markerHeight="10" refX="8" refY="3" orient="auto" markerUnits="strokeWidth"><path d="M0,0 L0,6 L9,3 z" fill="#ff4d4f"/></marker></defs>
  <rect x="100" y="150" width="300" height="34" rx="4" fill="none" stroke="#ff4d4f" stroke-width="3"><animate attributeName="opacity" values="1;0.3;1" dur="1s" repeatCount="indefinite"/></rect>
  <path d="M420 167 L595 167" stroke="#ff4d4f" stroke-width="4" marker-end="url(#arrow)"/>
  <text x="610" y="176" font-size="26" fill="#ffd166" font-weight="700">点击座位设置</text>
  <rect x="610" y="215" width="700" height="82" rx="8" fill="#1a1a1a" stroke="#cc785c"/>
  <text x="632" y="245" font-size="18" fill="#ffd7a8" font-weight="700">本章内容需要先配置好玩家类型和预制体</text>`n  <text x="632" y="272" font-size="18" fill="#80d8ff" text-decoration="underline">《编辑玩家类型》</text>`n  <rect data-hotspot-id="link-edit-player-type" data-hotspot-rect="632,250,170,26" x="632" y="250" width="170" height="26" rx="4" fill="none" stroke="#80d8ff" stroke-width="2" stroke-dasharray="6 4"/></svg>